<svg xmlns="http://www.w3.org/2000/svg" version="1.1" xmlns:xlink="http://www.w3.org/1999/xlink" xmlns:svgjs="http://svgjs.dev/svgjs" width="2000" height="1818" viewBox="0 0 2000 1818"><g transform="matrix(1,0,0,1,0.2568053415509439,0)"><svg viewBox="0 0 220 200" data-background-color="#3db642" preserveAspectRatio="xMidYMid meet" height="1818" width="2000" xmlns="http://www.w3.org/2000/svg" xmlns:xlink="http://www.w3.org/1999/xlink"><g id="tight-bounds" transform="matrix(1,0,0,1,-0.028248587570601558,0)"><svg viewBox="0 0 220.05649717514123 200" height="200" width="220.05649717514123"><g><svg viewBox="0 0 220.05649717514123 200" height="200" width="220.05649717514123"><g><svg viewBox="0 0 220.05649717514123 200" height="200" width="220.05649717514123"><g id="textblocktransform"><svg viewBox="0 0 220.05649717514123 200" height="200" width="220.05649717514123" id="textblock"><g><svg viewBox="0 0 220.05649717514123 200" height="200" width="220.05649717514123"><g transform="matrix(1,0,0,1,0,0)"><svg width="220.05649717514123" viewBox="-6.661338147750939e-16 -35.949999999999996 116.84999999999998 103.05000000000001" height="200" data-palette-color="#ffffff"><svg></svg><svg></svg><g class="wordmark-text-0" data-fill-palette-color="primary" id="text-0"><path d="M12.5 4.35v0c-2.533 0-4.607-0.6-6.22-1.8-1.62-1.2-2.803-2.75-3.55-4.65-0.753-1.9-1.13-3.867-1.13-5.9v0c0-2.633 0.4-5.277 1.2-7.93 0.8-2.647 1.91-5.17 3.33-7.57 1.413-2.4 3.02-4.533 4.82-6.4 1.8-1.867 3.727-3.343 5.78-4.43 2.047-1.08 4.087-1.62 6.12-1.62v0c1.467 0 2.7 0.34 3.7 1.02 1 0.687 1.5 1.863 1.5 3.53v0c0 1-0.173 2.117-0.52 3.35-0.353 1.233-0.82 2.423-1.4 3.57-0.587 1.153-1.247 2.097-1.98 2.83-0.733 0.733-1.483 1.1-2.25 1.1v0c-0.333 0-0.683-0.117-1.05-0.35-0.367-0.233-0.7-0.633-1-1.2v0c0.5-0.567 1.067-1.26 1.7-2.08 0.633-0.813 1.233-1.68 1.8-2.6 0.567-0.913 1.033-1.813 1.4-2.7 0.367-0.88 0.55-1.653 0.55-2.32v0c0-0.6-0.167-1.077-0.5-1.43-0.333-0.347-0.917-0.52-1.75-0.52v0c-1.467 0-2.973 0.55-4.52 1.65-1.553 1.1-3.047 2.573-4.48 4.42-1.433 1.853-2.723 3.92-3.87 6.2-1.153 2.287-2.063 4.637-2.73 7.05-0.667 2.42-1 4.713-1 6.88v0c0 1.6 0.243 3.123 0.73 4.57 0.48 1.453 1.253 2.64 2.32 3.56 1.067 0.913 2.467 1.37 4.2 1.37v0c1.8 0 3.59-0.5 5.37-1.5 1.787-1 3.423-2.317 4.91-3.95 1.48-1.633 2.67-3.383 3.57-5.25v0l1.3 0.85c-1.167 2.233-2.567 4.273-4.2 6.12-1.633 1.853-3.473 3.34-5.52 4.46-2.053 1.113-4.263 1.67-6.63 1.67zM28.75 14v0c-0.833 0-1.607-0.257-2.32-0.77-0.72-0.52-1.08-1.347-1.08-2.48v0c0-1.067 0.317-2.023 0.95-2.87 0.633-0.853 1.45-1.637 2.45-2.35 1-0.72 2.077-1.37 3.23-1.95 1.147-0.587 2.253-1.13 3.32-1.63v0c0.367-0.967 0.777-2.193 1.23-3.68 0.447-1.48 0.837-2.853 1.17-4.12v0c-1.033 1.433-2.133 2.7-3.3 3.8-1.167 1.1-2.467 1.65-3.9 1.65v0c-0.6 0-1.233-0.127-1.9-0.38-0.667-0.247-1.223-0.68-1.67-1.3-0.453-0.613-0.68-1.437-0.68-2.47v0c0-0.867 0.16-1.917 0.48-3.15 0.313-1.233 0.713-2.443 1.2-3.63 0.48-1.18 0.987-2.163 1.52-2.95 0.533-0.78 1-1.17 1.4-1.17v0c0.2 0 0.493 0.073 0.88 0.22 0.38 0.153 0.753 0.353 1.12 0.6 0.367 0.253 0.6 0.53 0.7 0.83v0c-0.3 0.4-0.633 0.973-1 1.72-0.367 0.753-0.717 1.587-1.05 2.5-0.333 0.92-0.607 1.813-0.82 2.68-0.22 0.867-0.33 1.617-0.33 2.25v0c0 0.5 0.1 0.933 0.3 1.3 0.2 0.367 0.583 0.55 1.15 0.55v0c0.733 0 1.493-0.3 2.28-0.9 0.78-0.6 1.547-1.367 2.3-2.3 0.747-0.933 1.42-1.883 2.02-2.85v0c0.067-0.233 0.133-0.6 0.2-1.1 0.067-0.5 0.183-1.017 0.35-1.55v0c0.167-0.567 0.46-1.083 0.88-1.55 0.413-0.467 1.003-0.7 1.77-0.7v0c0.267 0 0.517 0.017 0.75 0.05 0.233 0.033 0.517 0.083 0.85 0.15v0c0 0.5-0.177 1.473-0.53 2.92-0.347 1.453-0.803 3.13-1.37 5.03-0.567 1.9-1.2 3.8-1.9 5.7v0c1.4-0.567 2.86-1.51 4.38-2.83 1.513-1.313 2.737-3.187 3.67-5.62v0l0.85 0.7c-0.5 1.667-1.257 3.117-2.27 4.35-1.02 1.233-2.163 2.283-3.43 3.15-1.267 0.867-2.55 1.583-3.85 2.15v0c-0.9 2.167-1.873 4.167-2.92 6-1.053 1.833-2.163 3.293-3.33 4.38-1.167 1.08-2.417 1.62-3.75 1.62zM28.25 12.15v0c0.633 0 1.517-0.667 2.65-2 1.133-1.333 2.283-3.333 3.45-6v0c-1.067 0.533-2.14 1.16-3.22 1.88-1.087 0.713-1.997 1.47-2.73 2.27-0.733 0.8-1.1 1.617-1.1 2.45v0c0 0.333 0.077 0.65 0.23 0.95 0.147 0.3 0.387 0.45 0.72 0.45zM52.15 2.2v0c-2.133 0-3.773-0.573-4.92-1.72-1.153-1.153-1.73-2.597-1.73-4.33v0c0-1.467 0.377-3.027 1.13-4.68 0.747-1.647 1.753-3.197 3.02-4.65 1.267-1.447 2.667-2.62 4.2-3.52 1.533-0.9 3.067-1.35 4.6-1.35v0c0.867 0 1.693 0.223 2.48 0.67 0.78 0.453 1.17 1.347 1.17 2.68v0c0 1.267-0.367 2.45-1.1 3.55-0.733 1.1-1.717 2.083-2.95 2.95-1.233 0.867-2.59 1.573-4.07 2.12-1.487 0.553-2.98 0.913-4.48 1.08v0c-0.033 0.133-0.057 0.273-0.07 0.42-0.02 0.153-0.03 0.397-0.03 0.73v0c0 0.167 0.027 0.457 0.08 0.87 0.047 0.42 0.187 0.863 0.42 1.33 0.233 0.467 0.617 0.867 1.15 1.2 0.533 0.333 1.267 0.5 2.2 0.5v0c1.4 0 2.81-0.393 4.23-1.18 1.413-0.78 2.747-1.82 4-3.12 1.247-1.3 2.287-2.75 3.12-4.35v0l1 0.8c-0.9 2-2.057 3.75-3.47 5.25-1.42 1.5-2.987 2.667-4.7 3.5-1.72 0.833-3.48 1.25-5.28 1.25zM50.05-6.85v0c0.867-0.1 1.833-0.4 2.9-0.9 1.067-0.5 2.093-1.133 3.08-1.9 0.98-0.767 1.787-1.61 2.42-2.53 0.633-0.913 0.95-1.837 0.95-2.77v0c0-0.367-0.067-0.617-0.2-0.75-0.133-0.133-0.35-0.2-0.65-0.2v0c-0.767 0-1.567 0.273-2.4 0.82-0.833 0.553-1.65 1.27-2.45 2.15-0.8 0.887-1.517 1.863-2.15 2.93-0.633 1.067-1.133 2.117-1.5 3.15zM69.05 2.8v0c-1.733 0-3.157-0.54-4.27-1.62-1.12-1.087-1.68-2.747-1.68-4.98v0c0-1.633 0.317-3.233 0.95-4.8 0.633-1.567 1.483-2.977 2.55-4.23 1.067-1.247 2.26-2.237 3.58-2.97 1.313-0.733 2.653-1.1 4.02-1.1v0c1.4 0 2.41 0.35 3.03 1.05 0.613 0.7 0.92 1.517 0.92 2.45v0c0 0.933-0.223 1.84-0.67 2.72-0.453 0.887-1.063 1.33-1.83 1.33v0c-0.633 0-1.15-0.317-1.55-0.95v0c0.333-0.233 0.683-0.667 1.05-1.3 0.367-0.633 0.55-1.45 0.55-2.45v0c0-0.267-0.067-0.477-0.2-0.63-0.133-0.147-0.383-0.22-0.75-0.22v0c-0.833 0-1.707 0.373-2.62 1.12-0.92 0.753-1.77 1.72-2.55 2.9-0.787 1.187-1.42 2.437-1.9 3.75-0.487 1.32-0.73 2.53-0.73 3.63v0c0 0.933 0.243 1.79 0.73 2.57 0.48 0.787 1.42 1.18 2.82 1.18v0c1.267 0 2.583-0.367 3.95-1.1 1.367-0.733 2.65-1.76 3.85-3.08 1.2-1.313 2.167-2.887 2.9-4.72v0l1 0.9c-0.8 2.033-1.907 3.84-3.32 5.42-1.42 1.587-2.987 2.84-4.7 3.76-1.72 0.913-3.43 1.37-5.13 1.37zM83.35 1.6v0c-1.5 0-2.523-0.49-3.07-1.47-0.553-0.987-0.83-2.063-0.83-3.23v0c0-1.067 0.167-2.16 0.5-3.28 0.333-1.113 0.793-2.153 1.38-3.12 0.58-0.967 1.23-1.743 1.95-2.33 0.713-0.58 1.437-0.87 2.17-0.87v0c0.233 0 0.51 0.04 0.83 0.12 0.313 0.087 0.537 0.213 0.67 0.38v0c-0.4 0.5-0.807 1.117-1.22 1.85-0.42 0.733-0.803 1.507-1.15 2.32-0.353 0.82-0.63 1.647-0.83 2.48-0.2 0.833-0.3 1.6-0.3 2.3v0c0 0.667 0.127 1.217 0.38 1.65 0.247 0.433 0.687 0.65 1.32 0.65v0c0.633 0 1.393-0.357 2.28-1.07 0.88-0.72 1.72-1.547 2.52-2.48v0c-1.067-0.967-1.833-2.027-2.3-3.18-0.467-1.147-0.7-2.537-0.7-4.17v0c0-0.7 0.177-1.5 0.53-2.4 0.347-0.9 0.913-1.683 1.7-2.35 0.78-0.667 1.837-1 3.17-1v0c1.433 0 2.443 0.4 3.03 1.2 0.58 0.8 0.87 1.75 0.87 2.85v0c0 1.233-0.323 2.617-0.97 4.15-0.653 1.533-1.43 2.983-2.33 4.35v0c0.4 0.2 0.867 0.3 1.4 0.3v0c0.5 0 1.1-0.117 1.8-0.35 0.7-0.233 1.383-0.627 2.05-1.18 0.667-0.547 1.2-1.287 1.6-2.22v0l0.9 0.65c-0.733 1.7-1.707 2.94-2.92 3.72-1.22 0.787-2.413 1.18-3.58 1.18v0c-0.433 0-0.867-0.043-1.3-0.13-0.433-0.08-0.833-0.187-1.2-0.32v0c-1.133 1.333-2.433 2.5-3.9 3.5-1.467 1-2.95 1.5-4.45 1.5zM91.25-6.1v0c0.8-1.167 1.483-2.417 2.05-3.75 0.567-1.333 0.85-2.567 0.85-3.7v0c0-0.767-0.117-1.327-0.35-1.68-0.233-0.347-0.583-0.52-1.05-0.52v0c-0.633 0-1.283 0.45-1.95 1.35-0.667 0.9-1 2.033-1 3.4v0c0 0.7 0.127 1.55 0.38 2.55 0.247 1 0.603 1.783 1.07 2.35z" fill="#ffffff" fill-rule="nonzero" stroke="none" stroke-width="1" stroke-linecap="butt" stroke-linejoin="miter" stroke-miterlimit="10" stroke-dasharray="" stroke-dashoffset="0" font-family="none" font-weight="none" font-size="none" text-anchor="none" style="mix-blend-mode: normal" data-fill-palette-color="primary" opacity="1"></path><path d="M2.3 57.45v0c-1-0.533-1.633-1.083-1.9-1.65-0.267-0.567-0.4-1.05-0.4-1.45v0c0-0.9 0.327-2.11 0.98-3.63 0.647-1.513 1.52-3.253 2.62-5.22 1.1-1.967 2.35-4.017 3.75-6.15v0c-1.033-0.067-2.017-0.117-2.95-0.15-0.933-0.033-2.133-0.05-3.6-0.05v0h-0.8c0.467-1.2 1.21-2.043 2.23-2.53 1.013-0.48 2.203-0.72 3.57-0.72v0c0.567 0 1.16 0.033 1.78 0.1 0.613 0.067 1.253 0.133 1.92 0.2v0c1.667-2.4 3.31-4.667 4.93-6.8 1.613-2.133 3.147-4.06 4.6-5.78 1.447-1.713 2.737-3.12 3.87-4.22v0c1.6-1.6 2.767-2.4 3.5-2.4v0c0.467 0 0.993 0.183 1.58 0.55 0.58 0.367 1.187 0.833 1.82 1.4v0c-0.333 0.267-0.757 0.95-1.27 2.05-0.52 1.1-1.07 2.49-1.65 4.17-0.587 1.687-1.17 3.53-1.75 5.53-0.587 2-1.113 4.033-1.58 6.1-0.467 2.067-0.84 4.04-1.12 5.92-0.287 1.887-0.43 3.547-0.43 4.98v0c0 1.333 0.133 2.323 0.4 2.97 0.267 0.653 0.717 0.98 1.35 0.98v0c0.767 0 1.717-0.583 2.85-1.75 1.133-1.167 2.4-3.067 3.8-5.7v0l0.9 0.95c-1.033 2.733-2.373 4.983-4.02 6.75-1.653 1.767-3.413 2.65-5.28 2.65v0c-1.6 0-2.733-0.693-3.4-2.08-0.667-1.38-1-3.27-1-5.67v0c0-0.767 0.05-1.633 0.15-2.6 0.1-0.967 0.267-2.167 0.5-3.6v0c-1.467-0.233-2.767-0.417-3.9-0.55-1.133-0.133-2.217-0.267-3.25-0.4v0c-1.6 2.833-3.15 5.767-4.65 8.8-1.5 3.033-2.883 6.033-4.15 9zM18.75 38.15v0c0.433-1.967 0.943-3.96 1.53-5.98 0.58-2.013 1.197-3.947 1.85-5.8 0.647-1.847 1.287-3.503 1.92-4.97v0c-1 0.8-2.117 1.95-3.35 3.45-1.233 1.5-2.527 3.267-3.88 5.3-1.347 2.033-2.72 4.25-4.12 6.65v0c1 0.2 2 0.417 3 0.65 1 0.233 2.017 0.467 3.05 0.7zM28.95 67.1v0c-0.367 0-0.807-0.117-1.32-0.35-0.52-0.233-0.973-0.69-1.36-1.37-0.38-0.687-0.57-1.713-0.57-3.08v0c0-1.433 0.243-3.307 0.73-5.62 0.48-2.32 1.147-4.89 2-7.71 0.847-2.813 1.847-5.703 3-8.67 1.147-2.967 2.38-5.827 3.7-8.58 1.313-2.747 2.68-5.22 4.1-7.42 1.413-2.2 2.82-3.95 4.22-5.25 1.4-1.3 2.75-1.95 4.05-1.95v0c0.867 0 1.433 0.257 1.7 0.77 0.267 0.52 0.4 1.113 0.4 1.78v0c0 1.433-0.393 3-1.18 4.7-0.78 1.7-1.82 3.407-3.12 5.12-1.3 1.72-2.76 3.347-4.38 4.88-1.613 1.533-3.27 2.85-4.97 3.95v0c-0.133 0.333-0.267 0.667-0.4 1-0.133 0.333-0.267 0.667-0.4 1v0c0.367 0.133 0.657 0.367 0.87 0.7 0.22 0.333 0.347 0.683 0.38 1.05v0c0.267 1.433 0.533 2.707 0.8 3.82 0.267 1.12 0.673 1.997 1.22 2.63 0.553 0.633 1.347 0.95 2.38 0.95v0c1.167 0 2.2-0.433 3.1-1.3 0.9-0.867 1.817-2.083 2.75-3.65v0l1.1 0.8c-1.067 2.133-2.267 3.69-3.6 4.67-1.333 0.987-2.533 1.48-3.6 1.48v0c-0.567 0-1.16-0.117-1.78-0.35-0.613-0.233-1.203-0.567-1.77-1v0c-0.033 2.067-0.277 4.11-0.73 6.13-0.447 2.013-1.053 3.837-1.82 5.47-0.767 1.633-1.623 2.943-2.57 3.93-0.953 0.98-1.93 1.47-2.93 1.47zM30.35 64v0c0.367 0 0.757-0.317 1.17-0.95 0.42-0.633 0.83-1.467 1.23-2.5 0.4-1.033 0.767-2.173 1.1-3.42 0.333-1.253 0.6-2.487 0.8-3.7 0.2-1.22 0.3-2.33 0.3-3.33v0c0-0.967-0.107-1.827-0.32-2.58-0.22-0.747-0.597-1.587-1.13-2.52v0c-0.767 2.3-1.45 4.517-2.05 6.65-0.6 2.133-1.067 4.077-1.4 5.83-0.333 1.747-0.5 3.203-0.5 4.37v0c0 1.433 0.267 2.15 0.8 2.15zM37.4 34.8v0c2.033-1.9 3.767-3.75 5.2-5.55 1.433-1.8 2.527-3.393 3.28-4.78 0.747-1.38 1.12-2.353 1.12-2.92v0c0-0.267-0.133-0.4-0.4-0.4v0c-0.8 0-1.717 0.607-2.75 1.82-1.033 1.22-2.1 2.863-3.2 4.93-1.1 2.067-2.183 4.367-3.25 6.9zM54.75 54.4v0c-1.233 0-2.233-0.323-3-0.97-0.767-0.653-1.15-1.53-1.15-2.63v0c0-0.933 0.233-1.933 0.7-3 0.467-1.067 0.943-2.117 1.43-3.15 0.48-1.033 0.72-1.95 0.72-2.75v0c0-0.767-0.25-1.41-0.75-1.93-0.5-0.513-1.083-0.937-1.75-1.27v0c-0.733 1.833-1.557 3.607-2.47 5.32-0.92 1.72-1.663 3.063-2.23 4.03v0l-0.75-1.45c0.467-0.867 1.083-2.1 1.85-3.7 0.767-1.6 1.5-3.383 2.2-5.35v0c-0.333-0.333-0.5-0.783-0.5-1.35v0c0-0.867 0.267-1.683 0.8-2.45 0.533-0.767 1.05-1.15 1.55-1.15v0c0.4 0 0.69 0.223 0.87 0.67 0.187 0.453 0.28 0.763 0.28 0.93v0c0 0.167-0.073 0.467-0.22 0.9-0.153 0.433-0.263 0.75-0.33 0.95v0c0.033 0.367 0.327 0.723 0.88 1.07 0.547 0.353 1.17 0.763 1.87 1.23 0.7 0.467 1.317 1.05 1.85 1.75 0.533 0.7 0.8 1.583 0.8 2.65v0c0 0.967-0.217 1.95-0.65 2.95-0.433 1-0.867 1.933-1.3 2.8-0.433 0.867-0.65 1.617-0.65 2.25v0c0 0.467 0.123 0.773 0.37 0.92 0.253 0.153 0.547 0.23 0.88 0.23v0c0.8 0 1.633-0.243 2.5-0.73 0.867-0.48 1.717-1.103 2.55-1.87 0.833-0.767 1.567-1.577 2.2-2.43 0.633-0.847 1.117-1.62 1.45-2.32v0l1.2 0.9c-0.633 1.433-1.55 2.84-2.75 4.22-1.2 1.387-2.533 2.52-4 3.4-1.467 0.887-2.95 1.33-4.45 1.33zM67.65 54.6v0c-1.467 0-2.567-0.433-3.3-1.3-0.733-0.867-1.1-1.917-1.1-3.15v0c0-0.767 0.133-1.733 0.4-2.9 0.267-1.167 0.643-2.393 1.13-3.68 0.48-1.28 1.037-2.487 1.67-3.62 0.633-1.133 1.317-2.06 2.05-2.78 0.733-0.713 1.467-1.07 2.2-1.07v0c0.4 0 0.75 0.117 1.05 0.35 0.3 0.233 0.45 0.6 0.45 1.1v0c0 0.433-0.257 1.083-0.77 1.95-0.52 0.867-1.12 1.867-1.8 3-0.687 1.133-1.287 2.307-1.8 3.52-0.52 1.22-0.78 2.38-0.78 3.48v0c0 1.067 0.193 1.773 0.58 2.12 0.38 0.353 0.937 0.53 1.67 0.53v0c1.133 0 2.367-0.567 3.7-1.7 1.333-1.133 2.717-3.117 4.15-5.95v0l0.75 0.8c-1.167 2.933-2.65 5.217-4.45 6.85-1.8 1.633-3.733 2.45-5.8 2.45zM73.55 32.05v0c-0.633 0-1.207-0.16-1.72-0.48-0.52-0.313-0.78-0.803-0.78-1.47v0c0-0.8 0.433-1.483 1.3-2.05 0.867-0.567 1.767-0.85 2.7-0.85v0c0.6 0 1.11 0.133 1.53 0.4 0.413 0.267 0.62 0.75 0.62 1.45v0c0 0.7-0.383 1.373-1.15 2.02-0.767 0.653-1.6 0.98-2.5 0.98zM81.5 55.9v0c-1.733 0-3.157-0.54-4.27-1.62-1.12-1.087-1.68-2.747-1.68-4.98v0c0-1.633 0.317-3.233 0.95-4.8 0.633-1.567 1.483-2.977 2.55-4.23 1.067-1.247 2.26-2.237 3.58-2.97 1.313-0.733 2.653-1.1 4.02-1.1v0c1.4 0 2.41 0.35 3.03 1.05 0.613 0.7 0.92 1.517 0.92 2.45v0c0 0.933-0.223 1.84-0.67 2.72-0.453 0.887-1.063 1.33-1.83 1.33v0c-0.633 0-1.15-0.317-1.55-0.95v0c0.333-0.233 0.683-0.667 1.05-1.3 0.367-0.633 0.55-1.45 0.55-2.45v0c0-0.267-0.067-0.477-0.2-0.63-0.133-0.147-0.383-0.22-0.75-0.22v0c-0.833 0-1.707 0.373-2.62 1.12-0.92 0.753-1.77 1.72-2.55 2.9-0.787 1.187-1.42 2.437-1.9 3.75-0.487 1.32-0.73 2.53-0.73 3.63v0c0 0.933 0.243 1.79 0.73 2.57 0.48 0.787 1.42 1.18 2.82 1.18v0c1.267 0 2.583-0.367 3.95-1.1 1.367-0.733 2.65-1.76 3.85-3.08 1.2-1.313 2.167-2.887 2.9-4.72v0l1 0.9c-0.8 2.033-1.907 3.84-3.32 5.42-1.42 1.587-2.987 2.84-4.7 3.76-1.72 0.913-3.43 1.37-5.13 1.37zM95.3 55.45v0c-1.1 0-2.057-0.367-2.87-1.1-0.82-0.733-1.23-1.833-1.23-3.3v0c0-1.167 0.267-2.433 0.8-3.8 0.533-1.367 1.267-2.717 2.2-4.05 0.933-1.333 2-2.543 3.2-3.63 1.2-1.08 2.483-1.953 3.85-2.62 1.367-0.667 2.733-1 4.1-1v0c1.433 0 2.65 0.367 3.65 1.1 1 0.733 1.5 1.7 1.5 2.9v0c0 0.9-0.317 1.55-0.95 1.95-0.633 0.4-1.383 0.517-2.25 0.35v0c0.067-0.3 0.127-0.6 0.18-0.9 0.047-0.3 0.07-0.617 0.07-0.95v0c0-0.667-0.133-1.267-0.4-1.8-0.267-0.533-0.833-0.8-1.7-0.8v0c-0.933 0-1.883 0.317-2.85 0.95-0.967 0.633-1.89 1.457-2.77 2.47-0.887 1.02-1.68 2.137-2.38 3.35-0.7 1.22-1.25 2.413-1.65 3.58-0.4 1.167-0.6 2.217-0.6 3.15v0c0 1.067 0.383 1.6 1.15 1.6v0c0.767 0 1.617-0.377 2.55-1.13 0.933-0.747 1.877-1.687 2.83-2.82 0.947-1.133 1.853-2.293 2.72-3.48 0.867-1.18 1.617-2.187 2.25-3.02v0c0.1-0.167 0.233-0.25 0.4-0.25v0c0.133 0.033 0.393 0.107 0.78 0.22 0.38 0.12 0.737 0.297 1.07 0.53 0.333 0.233 0.5 0.533 0.5 0.9v0c0 0.333-0.14 0.757-0.42 1.27-0.287 0.52-0.62 1.087-1 1.7-0.387 0.62-0.72 1.24-1 1.86-0.287 0.613-0.43 1.203-0.43 1.77v0c0 0.433 0.117 0.84 0.35 1.22 0.233 0.387 0.617 0.58 1.15 0.58v0c0.8 0 1.927-0.593 3.38-1.78 1.447-1.18 2.92-3.187 4.42-6.02v0l0.95 0.95c-0.8 1.8-1.757 3.39-2.87 4.77-1.12 1.387-2.297 2.473-3.53 3.26-1.233 0.78-2.483 1.17-3.75 1.17v0c-1.367 0-2.383-0.433-3.05-1.3-0.667-0.867-1.033-1.8-1.1-2.8v0c0-0.067 0-0.117 0-0.15 0-0.033 0-0.067 0-0.1v0c-1.333 1.6-2.557 2.867-3.67 3.8-1.12 0.933-2.313 1.4-3.58 1.4z" fill="#ffffff" fill-rule="nonzero" stroke="none" stroke-width="1" stroke-linecap="butt" stroke-linejoin="miter" stroke-miterlimit="10" stroke-dasharray="" stroke-dashoffset="0" font-family="none" font-weight="none" font-size="none" text-anchor="none" style="mix-blend-mode: normal" data-fill-palette-color="primary" opacity="1"></path></g></svg></g></svg></g></svg></g></svg></g></svg></g><defs></defs></svg><rect width="220.05649717514123" height="200" fill="none" stroke="none" visibility="hidden"></rect></g></svg></g></svg>